<svg width="512" height="512" viewBox="0 0 512 512" fill="none" xmlns="http://www.w3.org/2000/svg">
<path d="M414.418 249.09C414.418 252.336 414.336 255.541 414.171 258.745C413.308 277.604 409.898 295.806 404.269 312.98C391.943 350.739 369.016 383.65 338.982 408.261C303.524 437.227 258.246 454.648 208.859 454.648C95.335 454.648 3.3 362.613 3.3 249.089C3.3 190.992 27.377 138.565 66.122 101.176C80.133 87.617 96.074 76.072 113.496 66.95C129.643 58.486 147.064 52.076 165.389 48.173C179.4 45.133 193.944 43.53 208.859 43.53C212.598 43.53 216.337 43.612 220.035 43.859C273.612 46.694 321.767 70.114 356.732 106.311C369.305 119.294 380.152 133.963 388.944 149.904C398.189 166.626 405.132 184.787 409.405 203.974C412.692 218.521 414.418 233.6 414.418 249.09Z" fill="#A1D51C"/>
<path d="M414.418 249.09C414.418 252.336 414.336 255.541 414.171 258.745C413.308 277.604 409.898 295.806 404.269 312.98C391.943 350.739 369.016 383.65 338.982 408.261C303.524 437.227 258.246 454.648 208.859 454.648C95.335 454.648 3.3 362.613 3.3 249.089C3.3 190.992 27.377 138.565 66.122 101.176C80.133 87.617 96.074 76.072 113.496 66.95C129.643 58.486 147.064 52.076 165.389 48.173C179.4 45.133 193.944 43.53 208.859 43.53C212.598 43.53 216.337 43.612 220.035 43.859C273.612 46.694 321.767 70.114 356.732 106.311C369.305 119.294 380.152 133.963 388.944 149.904C398.189 166.626 405.132 184.787 409.405 203.974C412.692 218.521 414.418 233.6 414.418 249.09Z" fill="#BF1CD5"/>
<path d="M414.414 249.09C414.414 252.346 414.336 255.551 414.179 258.755C413.319 277.616 409.907 295.8 404.279 312.968C391.931 350.743 369.005 383.646 338.968 408.264C335.894 391.2 331.127 374.788 324.848 359.079C317.371 340.374 307.758 322.789 296.296 306.559C285.719 291.579 273.605 277.772 260.189 265.398C246.694 252.945 231.897 241.952 216.006 232.651C259.512 185.237 320.602 154.21 388.935 149.912C398.183 166.637 405.139 184.795 409.411 203.969C412.695 218.531 414.414 233.589 414.414 249.09Z" fill="#BF16AE"/>
<path d="M404.269 312.98C391.943 350.739 369.016 383.65 338.982 408.261C335.9 391.21 331.134 374.775 324.848 359.08C340.913 331.839 370.455 313.432 404.269 312.98Z" fill="#C61CD5"/>
<path d="M388.936 149.912C357.44 151.866 327.428 159.551 300.022 171.899C276.888 182.32 255.578 196.049 236.665 212.513C229.397 218.843 222.493 225.539 216.006 232.651C188.235 216.291 157.182 205.037 124.018 200.113C97.836 172.264 77.829 138.553 66.132 101.17C80.122 87.623 96.065 76.082 113.493 66.938C129.645 58.497 147.073 52.089 165.387 48.181C179.403 45.133 193.939 43.544 208.867 43.544C212.592 43.544 216.344 43.622 220.043 43.857C273.605 46.697 321.774 70.117 356.735 106.302C369.293 119.301 380.157 133.968 388.936 149.912Z" fill="#BF167B"/>
<path d="M356.731 106.312C343.378 113.666 328.011 117.857 311.7 117.857C266.792 117.857 229.156 86.097 220.035 43.859C273.612 46.695 321.767 70.114 356.731 106.312Z" fill="#D11CD5"/>
<path d="M99.501 361.889L128.548 312.626L279.672 56.071L294.964 30.124C304.759 13.477 326.2 7.92799 342.847 17.724C353.71 24.133 360.067 35.699 360.067 47.892C360.067 50.914 359.676 53.962 358.869 56.984L356.316 66.389C355.17 70.687 349.412 71.495 347.12 67.692L339.305 54.718C335.944 49.299 328.389 49.508 325.315 54.77L314.66 72.85L304.734 89.705C302.311 93.795 301.139 98.51 301.347 103.278L302.024 119.221C302.206 123.962 301.034 128.678 298.611 132.794L177.577 338.26L149.494 385.934L120.681 434.833L108.984 454.684C101.247 467.84 84.313 472.217 71.157 464.479C62.404 459.321 57.532 450.099 57.532 440.642C57.532 435.875 58.782 431.055 61.362 426.652L74.362 404.56C74.362 404.56 74.362 404.56 74.388 404.56L99.501 361.889Z" fill="url(#paint0_linear_0_1)"/>
<path d="M179.531 452.548C178.411 401.8 136.781 360.899 85.72 360.899C70.48 360.899 56.1 364.546 43.412 371.033C32.6 356.444 23.717 340.397 17.1 323.203C10.457 306.113 6.054 287.929 4.283 268.938C3.632 262.399 3.293 255.782 3.293 249.087C3.293 235.566 4.622 222.332 7.123 209.515C31.898 201.543 58.314 197.271 85.772 197.271C120.889 197.271 154.365 204.305 184.846 217.044C202.014 224.208 218.244 233.17 233.276 243.721C287.671 281.808 326.644 340.398 338.993 408.262C323.649 420.741 306.533 431.135 288.036 438.82C271.076 445.932 252.997 450.778 234.083 453.122C225.825 454.112 217.41 454.659 208.865 454.659C198.887 454.658 189.091 453.955 179.531 452.548Z" fill="#BF169A"/>
<path d="M70.851 218.511C70.776 216.714 72.173 215.196 73.969 215.121C78.221 214.944 81.947 214.858 85.359 214.858C87.158 214.858 88.615 216.316 88.615 218.114C88.615 219.913 87.157 221.37 85.359 221.37C82.039 221.37 78.402 221.454 74.241 221.628C72.326 221.681 70.923 220.22 70.851 218.511ZM128.552 225.275C120.957 223.855 113.244 222.828 105.629 222.221C103.835 222.079 102.498 220.509 102.641 218.717C102.783 216.925 104.365 215.599 106.145 215.729C113.988 216.354 121.93 217.412 129.75 218.875C131.517 219.206 132.682 220.906 132.351 222.675C132.018 224.458 130.299 225.604 128.552 225.275Z" fill="white"/>
<path d="M417.749 336.492C419.419 337.168 421.315 336.361 421.987 334.696C423.348 331.338 424.501 328.276 425.513 325.338C426.098 323.637 425.195 321.784 423.496 321.199C421.794 320.608 419.942 321.518 419.357 323.216C418.383 326.045 417.268 329.001 415.953 332.251C415.276 333.919 416.08 335.817 417.749 336.492ZM408.577 348.693C401.141 363.622 392.035 377.675 381.518 390.463C380.376 391.852 380.577 393.904 381.966 395.046C383.347 396.183 385.404 395.995 386.55 394.599C397.378 381.432 406.75 366.964 414.408 351.598C415.209 349.988 414.556 348.032 412.945 347.231C411.33 346.428 409.381 347.083 408.577 348.693ZM37.606 105.989C39.419 103.807 41.348 101.593 43.503 99.219C44.713 97.887 44.613 95.828 43.282 94.619C41.951 93.408 39.892 93.511 38.682 94.84C36.462 97.285 34.472 99.571 32.597 101.826C31.447 103.209 31.637 105.262 33.021 106.412C34.407 107.564 36.459 107.369 37.606 105.989ZM55.425 87.067C67.381 75.699 80.726 65.618 95.091 57.107C96.638 56.191 97.149 54.193 96.232 52.646C95.315 51.098 93.316 50.588 91.771 51.505C76.985 60.264 63.247 70.642 50.937 82.348C49.633 83.587 49.582 85.649 50.821 86.952C52.061 88.255 54.122 88.307 55.425 87.067Z" fill="black"/>
<path d="M232.422 355.125C230.266 354.375 225.625 354 218.5 354H146.219C141.344 354 137.453 353.25 134.547 351.75C131.641 350.156 130.188 347.297 130.188 343.172C130.188 340.172 130.891 337.781 132.297 336C135.859 336.938 139.281 337.406 142.562 337.406C145.844 337.406 148.422 337.078 150.297 336.422C152.172 335.672 153.812 334.406 155.219 332.625C158.031 328.875 159.438 322.641 159.438 313.922V172.734C159.438 164.016 154.281 158.578 143.969 156.422C137.5 155.109 133.281 153.609 131.312 151.922C129.344 150.234 128.359 148.406 128.359 146.438C128.359 142.125 129.109 139.219 130.609 137.719C132.297 138.188 133.844 138.422 135.25 138.422H170.125L220.188 137.016C264.062 137.016 291.812 148.969 303.438 172.875C307.656 181.5 309.766 190.125 309.766 198.75C309.766 207.375 309.156 214.734 307.938 220.828C306.719 226.922 304.609 232.875 301.609 238.688C298.703 244.406 294.812 249.844 289.938 255C285.062 260.062 278.969 264.516 271.656 268.359C255.812 276.609 235.562 280.734 210.906 280.734H205.562C202.938 280.734 201.625 279.047 201.625 275.672C201.625 268.266 203.641 264.094 207.672 263.156C242.922 263.906 264.25 253.406 271.656 231.656C273.906 224.812 275.031 217.5 275.031 209.719C275.031 201.938 274.188 194.812 272.5 188.344C270.812 181.781 267.766 175.969 263.359 170.906C253.609 159.844 237.484 154.312 214.984 154.312C205.891 154.312 199.844 156.281 196.844 160.219C194.031 163.688 192.625 170.719 192.625 181.312V321.797C193.094 329.109 198.906 333.562 210.062 335.156C220.094 336.562 226.328 337.875 228.766 339.094C231.203 340.312 232.797 341.531 233.547 342.75C234.297 343.875 234.672 345.281 234.672 346.969C234.672 350.531 233.922 353.25 232.422 355.125Z" fill="white"/>
<path d="M508.7 495.848H428.897C416.408 495.848 405.509 487.4 402.398 475.305C398.544 460.331 385.052 449.872 369.589 449.872H265.954C293.222 442.113 318.871 428.895 341.044 410.78C389.726 370.892 417.674 311.801 417.674 249.091C417.674 178.293 381.779 110.766 319.064 71.777L328.112 56.417C330.027 53.161 334.57 53.265 336.505 56.388L344.331 69.369C348.101 75.632 357.558 74.324 359.468 67.243L362.007 57.82C366.472 41.266 359.272 23.625 344.499 14.923C326.327 4.221 302.852 10.295 292.149 28.46L278.207 52.128C255.431 44.119 231.966 40.275 208.858 40.275C94.968 40.275 0.0429993 132.207 0.0429993 249.091C0.0429993 311.086 27.25 366.802 70.294 405.078L58.562 424.993C49.897 439.705 54.788 458.623 69.5 467.288C84.265 475.984 103.204 470.935 111.795 456.35L122.036 438.966C148.491 451.112 177.893 457.906 208.857 457.906C224.265 457.906 232.093 456.386 234.085 456.386H369.587C382.076 456.386 392.975 464.834 396.086 476.93C399.94 491.904 413.432 502.363 428.895 502.363H508.7C510.499 502.363 511.956 500.905 511.956 499.107C511.956 497.306 510.498 495.848 508.7 495.848ZM7.758 270.975C32.387 260.407 58.603 255.052 85.72 255.052C188.507 255.052 275.388 334.626 284.584 436.655C269.392 442.779 253.469 447.035 237.198 449.348C234.34 368.353 167.192 303.065 85.72 303.065C62.544 303.065 39.552 308.499 18.925 318.692C13.115 302.912 9.398 286.56 7.758 270.975ZM6.557 249.09C6.557 237.037 7.583 224.991 9.968 212.028C34.339 204.395 59.83 200.526 85.773 200.526C119.686 200.526 152.597 207.094 183.592 220.049C200.433 227.076 216.519 235.937 231.408 246.387C286.159 284.725 323.043 341.669 335.427 406.906C321.733 417.879 306.715 426.958 290.814 433.992C280.326 329.639 191.156 248.539 85.72 248.539C58.421 248.539 32.02 253.862 7.136 264.239C6.763 259.236 6.557 254.187 6.557 249.09ZM64.696 107.26C75.59 139.61 93.077 169.932 115.672 195.718C105.805 194.595 95.834 194.013 85.772 194.013C60.368 194.013 35.396 197.685 11.424 204.83C19.542 168.185 37.75 134.607 64.696 107.26ZM111.341 71.84C123.223 121.897 153.178 165.053 194.802 193.715L183.458 212.973C164.771 205.401 145.423 200.071 125.596 197.036C100.385 169.952 81.15 137.209 69.85 102.152C82.025 90.603 95.797 80.393 111.341 71.84ZM222.507 146.684L198.124 188.076C157.562 160.006 128.426 117.734 117.225 68.72C131.779 61.317 147.088 55.741 162.829 52.107C170.125 91.176 191.997 124.527 222.507 146.684ZM279.269 172.051C282.318 172.716 285.398 173.297 288.511 173.78C283.383 176.363 278.339 179.113 273.387 182.036L279.269 172.051ZM266.199 194.238C302.049 170.631 343.41 156.409 387.056 153.296C395.104 168.217 401.209 184.112 405.251 200.643C350.372 200.698 298.998 222.085 260.139 260.882C253.01 254.492 245.478 248.466 237.588 242.808L266.199 194.238ZM341.122 402.169C338.115 387.425 333.884 373.106 328.5 359.328C343.8 334.45 370.608 318.348 399.63 316.423C388.349 348.431 368.696 378.311 341.122 402.169ZM401.833 309.834C371.278 311.017 342.726 326.846 325.505 351.998C318.719 336.087 310.363 320.952 300.571 306.766C330.158 275.693 371.259 260.204 410.716 261.814C409.704 278.355 406.667 294.5 401.833 309.834ZM411.002 255.321C370.194 253.661 327.727 269.44 296.771 301.409C287.343 288.469 276.697 276.362 264.901 265.256C302.787 227.531 352.999 206.834 406.749 207.154C409.688 220.959 411.163 235.123 411.163 249.091C411.162 251.173 411.072 253.245 411.002 255.321ZM383.562 147.063C354.584 149.469 326.618 156.633 300.574 168.105C300.203 168.261 299.83 168.409 299.462 168.573C293.784 168.097 288.203 167.285 282.731 166.175L301.426 134.439C303.868 130.29 305.117 125.613 305.216 120.829C322.926 122.163 340.676 118.247 356.027 110.323C366.555 121.459 375.797 133.786 383.562 147.063ZM351.288 105.468C337.107 112.393 320.883 115.613 305.063 114.276L304.59 103.127C304.414 98.989 305.435 94.915 307.539 91.344L315.762 77.384C328.504 85.319 340.428 94.703 351.288 105.468ZM297.762 31.764C306.6 16.761 326.057 11.619 341.192 20.534C353.449 27.754 359.423 42.388 355.719 56.123L353.18 65.546C352.762 67.091 350.718 67.346 349.908 66.005L342.065 52.991C337.441 45.522 326.847 45.734 322.501 53.109L301.927 88.038C299.184 92.692 297.856 98.006 298.083 103.4L298.76 119.351C298.936 123.488 297.915 127.562 295.814 131.134L232.233 239.067C218.803 229.914 204.467 222.01 189.517 215.518L297.762 31.764ZM253.841 93.49C239.766 81.763 229.175 65.833 224.246 47.424C241.363 48.7 258.397 52.197 274.831 57.859L253.841 93.49ZM217.435 46.974C222.545 67.962 234.475 86.066 250.515 99.139L225.828 141.048C196.858 119.811 176.065 88.012 169.151 50.777C182.16 48.167 195.493 46.788 208.859 46.788C211.994 46.787 214.814 46.849 217.435 46.974ZM48.534 372.233C60.201 366.903 72.681 364.155 85.72 364.155C88.564 364.155 91.377 364.302 94.159 364.565L73.662 399.36C64.49 391.102 56.076 382.021 48.534 372.233ZM106.185 453.044C99.347 464.651 84.418 468.516 72.807 461.675C61.2 454.837 57.335 439.908 64.176 428.297L101.155 365.522C117.798 368.438 132.97 375.955 145.253 386.725L106.185 453.044ZM150.105 391.318C164.938 406.356 174.616 426.479 176.08 448.719C158.292 445.807 141.278 440.57 125.359 433.326L150.105 391.318ZM182.684 449.685C180.072 398.68 137.152 357.642 85.72 357.642C71.253 357.642 57.409 360.742 44.519 366.86C35.18 353.878 27.339 339.752 21.253 324.735C41.12 314.812 63.343 309.578 85.72 309.578C163.887 309.578 228.33 372.362 230.761 450.148C224.489 450.835 218.143 451.392 208.859 451.392C200.116 451.392 191.647 450.846 182.684 449.685Z" fill="black"/>
<defs>
<linearGradient id="paint0_linear_0_1" x1="208.799" y1="12.8856" x2="208.799" y2="468.302" gradientUnits="userSpaceOnUse">
<stop stop-color="#676767"/>
<stop offset="0.317708" stop-color="#807E7E"/>
<stop offset="0.5" stop-color="#616161"/>
<stop offset="0.755208" stop-color="#423F3F"/>
<stop offset="0.953125" stop-color="#635F5F"/>
</linearGradient>
</defs>
</svg>
